-       thanks for supporting with server cost,       the fast  and The Hottest Private Tracker on the net

Please Seed back to make the speed Faster!!!

and don't forget to visit      ......
[color=blue][size=5][b]The Green Hornet 2011 R5 XVID AC3-5.1 HQ Hive-CM8[/b][/size][/color]



[b]Thx Hive

CM8 Doing It Right The First Time :D

Sources
Video: Russian R5 DVD-9
Audio: T0XiCiNK + Russian Effects
thx for syncing

Encode:
added brightness,sharpness,chroma,rgb and denoise and played a 
bit with the background noise of the line, its a bit clearer now

Video: 720x304 @bitrate 1800 2pass
Audio: English 5.1 @384
Sample: yes included
[/b]
 
http://www.imdb.com/title/tt0990407/


General
Complete name                    : The.Green.Hornet.2011.R5.XVID.AC3-5.1.HQ.Hive-CM8.avi
Format                           : AVI
Format/Info                      : Audio Video Interleave
File size                        : 1.75 GiB
Duration                         : 1h 54mn
Overall bit rate                 : 2 194 Kbps
Writing application              : Nandub v1.0rc2
Writing library                  : Nandub build 1853/release

Video
ID                               : 0
Format                           : MPEG-4 Visual
Format profile                   : Advanced Simple@L5
Format settings, BVOP            : Yes
Format settings, QPel            : Yes
Format settings, GMC             : No warppoints
Format settings, Matrix          : Default (H.263)
Muxing mode                      : Packed bitstream
Codec ID                         : XVID
Codec ID/Hint                    : XviD
Duration                         : 1h 54mn
Bit rate                         : 1 800 Kbps
Width                            : 720 pixels
Height                           : 304 pixels
Display aspect ratio             : 2.35:1
Frame rate                       : 25.000 fps
Color space                      : YUV
Chroma subsampling               : 4:2:0
Bit depth                        : 8 bits
Scan type                        : Progressive
Bits/(Pixel*Frame)               : 0.329
Stream size                      : 1.43 GiB (82%)
Writing library                  : XviD 1.2.1 (UTC 2008-12-04)

Audio
ID                               : 1
Format                           : AC-3
Format/Info                      : Audio Coding 3
Mode extension                   : CM (complete main)
Codec ID                         : 2000
Duration                         : 1h 54mn
Bit rate mode                    : Constant
Bit rate                         : 384 Kbps
Channel(s)                       : 6 channels
Channel positions                : Front: L C R, Side: L R, LFE
Sampling rate                    : 48.0 KHz
Bit depth                        : 16 bits
Video delay                      : 14ms
Stream size                      : 313 MiB (18%)
Alignment                        : Split accross interleaves
Interleave, duration             : 40 ms (1.00 video frame)
Interleave, preload duration     : 500 ms



Seth Rogen  ...  Britt Reid / The Green Hornet  
Jay Chou  ...  Kato  
Cameron Diaz  ...  Lenore Case  
Tom Wilkinson  ...  James Reid  
Christoph Waltz  ...  Chudnofsky  
David Harbour  ...  Scanlon  
Edward James Olmos  ...  Axford  
Jamie Harris  ...  Popeye   



Following the death of his father, Britt Reid, heir to his father's 
large company, teams up with his late dad's assistant Kato to become a masked crime fighting team.



[img]http://img41.imageshack.us/img41/5665/38427726.png[/img]
[img]http://img541.imageshack.us/img541/4503/grgr.png[/img]
[img]http://img12.imageshack.us/img12/3668/grgrgri.png[/img]
[img]http://img691.imageshack.us/img691/7580/grgrgrgr.png[/img]
[img]http://img690.imageshack.us/img690/207/grgrgrgrgr.png[/img]
[img]http://img340.imageshack.us/img340/4602/grgrgrgrgrgrj.png[/img]





Greetz

iNK,LUSi,,MAGNET,CLASSiFiED,THC,LEGi0N,T0XiC,IMAGiNE,ViSiON,WBZ,FLAWL3SS,NOVA
Vik,Rapeseed,D2U,SAFC,goldadvance,MEMORY100,KaN1vE,Unevano,Pinnz,Wayne,Mr Hive
and all P2P groups 
Great Work Guys :D

CM8@hushmail.com